Coordinates
version=1
nRows=7
nColumns=40
inDegrees=yes

Units are S.I. units (second, meters, Newtons, ...)
If the header above contains a line with 'inDegrees', this indicates whether rotational values are in degrees (yes) or radians (no).

endheader
time	pelvis_tilt	pelvis_list	pelvis_rotation	pelvis_tx	pelvis_ty	pelvis_tz	hip_flexion_r	hip_adduction_r	hip_rotation_r	knee_angle_r	knee_angle_r_beta	ankle_angle_r	subtalar_angle_r	mtp_angle_r	hip_flexion_l	hip_adduction_l	hip_rotation_l	knee_angle_l	knee_angle_l_beta	ankle_angle_l	subtalar_angle_l	mtp_angle_l	lumbar_extension	lumbar_bending	lumbar_rotation	arm_flex_r	arm_add_r	arm_rot_r	elbow_flex_r	pro_sup_r	wrist_flex_r	wrist_dev_r	arm_flex_l	arm_add_l	arm_rot_l	elbow_flex_l	pro_sup_l	wrist_flex_l	wrist_dev_l
      3.97000000	    -14.39584032	      3.80828448	      6.02012114	     -0.31690017	      0.86503153	     -0.91574932	     46.83383874	    -18.19038077	     -0.57243755	     66.67906435	      1.16376922	     28.03479215	      0.00000000	      0.00000000	     49.22715434	     -3.04341261	      2.53068066	     63.69105735	      1.11161865	     23.80965193	      0.00000000	      0.00000000	    -21.43622562	     -2.24661173	     -1.04826863	    -35.13116333	    -48.57376458	     18.88049653	    101.52779691	     88.08310639	      0.00000000	      0.00000000	    -15.48796488	    -59.33707416	     39.70103168	    102.35403902	     87.86250417	      0.00000000	      0.00000000
      3.97500000	    -13.82604753	      3.68136102	      6.08344184	     -0.31296439	      0.87327367	     -0.91606798	     45.03396409	    -18.26964003	     -1.60776974	     65.02136488	      1.13483690	     27.11307709	      0.00000000	      0.00000000	     47.64475453	     -3.16400025	      2.50535472	     62.20501554	      1.08568233	     22.85786466	      0.00000000	      0.00000000	    -21.00511110	     -2.06162586	     -1.81095407	    -35.11338983	    -49.03930948	     19.07095691	    102.13920562	     88.11790540	      0.00000000	      0.00000000	    -20.45185551	    -58.74941317	     34.66508312	    103.17227906	     87.90537651	      0.00000000	      0.00000000
      3.98000000	    -13.15754247	      3.54973251	      6.09008477	     -0.30884532	      0.88193539	     -0.91622956	     43.08205221	    -18.28516685	     -2.69496724	     63.27263089	      1.10431574	     26.08032723	      0.00000000	      0.00000000	     45.88760973	     -3.37101405	      2.38817368	     60.61438281	      1.05792055	     21.89070584	      0.00000000	      0.00000000	    -20.63246053	     -1.88605962	     -1.48274089	    -36.76171928	    -48.71194084	     17.58212081	    102.76936556	     88.11361253	      0.00000000	      0.00000000	    -21.79887831	    -58.85619653	     33.60492402	    103.77319181	     87.89478961	      0.00000000	      0.00000000
      3.98500000	    -12.54355444	      3.40525802	      6.07277178	     -0.30479261	      0.89079336	     -0.91633772	     41.14199033	    -18.23826909	     -3.79771289	     61.36890308	      1.07108942	     24.95533836	      0.00000000	      0.00000000	     44.15445506	     -3.55739372	      2.36436764	     58.94371458	      1.02876189	     20.81738621	      0.00000000	      0.00000000	    -20.23300490	     -1.71294460	     -1.14835365	    -38.42787941	    -48.30348494	     16.00927272	    103.40500540	     88.11935155	      0.00000000	      0.00000000	    -23.29285536	    -58.91001796	     32.37662176	    104.38817905	     87.89243521	      0.00000000	      0.00000000
      3.99000000	    -11.94259081	      3.28177202	      6.00197396	     -0.30066386	      0.89995775	     -0.91631208	     39.20009973	    -18.15108399	     -4.88020057	     59.38117001	      1.03639693	     23.66527726	      0.00000000	      0.00000000	     42.34401771	     -3.81996339	      2.13887990	     57.09801500	      0.99654836	     19.61014009	      0.00000000	      0.00000000	    -19.82099768	     -1.58714608	     -0.80779444	    -39.92613428	    -47.87237237	     14.55066770	    103.97906204	     88.12989641	      0.00000000	      0.00000000	    -24.88089042	    -58.94533539	     30.98935154	    105.04312372	     87.89840268	      0.00000000	      0.00000000
      3.99500000	    -11.31076142	      3.13187946	      5.91949961	     -0.29652131	      0.90949137	     -0.91616587	     37.14951836	    -17.95305281	     -5.91435686	     57.22433959	      0.99875314	     22.19518037	      0.00000000	      0.00000000	     40.45749622	     -4.13391147	      1.88214943	     55.14917880	      0.96253475	     18.24459962	      0.00000000	      0.00000000	    -19.38534732	     -1.45291494	     -0.44394815	    -41.08291765	    -47.57195926	     13.61596451	    104.35652113	     88.10863004	      0.00000000	      0.00000000	    -26.03005165	    -59.12847829	     30.23673779	    105.58214188	     87.87885815	      0.00000000	      0.00000000
      4.00000000	    -10.78692320	      2.92923051	      5.84839514	     -0.29244057	      0.91918028	     -0.91607533	     35.15425040	    -17.66760229	     -6.93401263	     54.89631844	      0.95812150	     20.64455312	      0.00000000	      0.00000000	     38.64740338	     -4.40776687	      1.79347402	     53.08451110	      0.92649950	     16.75192481	      0.00000000	      0.00000000	    -18.90713929	     -1.26960534	     -0.06291329	    -42.37863110	    -47.09407908	     12.48207761	    104.80273147	     88.09383885	      0.00000000	      0.00000000	    -27.26733409	    -59.13525150	     29.37765514	    106.20496806	     87.86893339	      0.00000000	      0.00000000
